<?xml version="1.0" standalone="no"?>
<!DOCTYPE svg PUBLIC "-//W3C//DTD SVG 20010904//EN"
 "http://www.w3.org/TR/2001/REC-SVG-20010904/DTD/svg10.dtd">
<svg version="1.0" xmlns="http://www.w3.org/2000/svg"
 width="512.000000pt" height="512.000000pt" viewBox="0 0 512.000000 512.000000"
 preserveAspectRatio="xMidYMid meet">
<metadata>
Created by potrace 1.16, written by Peter Selinger 2001-2019
</metadata>
<g transform="translate(0.000000,512.000000) scale(0.100000,-0.100000)"
fill="#000000" stroke="none">
<path d="M2355 4953 c-683 -88 -1258 -560 -1470 -1206 -70 -216 -80 -282 -80
-572 0 -277 6 -326 62 -555 130 -535 471 -1148 974 -1752 161 -193 398 -447
548 -587 176 -164 166 -164 342 0 233 218 545 569 758 852 483 646 753 1236
822 1800 19 158 6 486 -24 622 -102 454 -353 834 -722 1090 -309 215 -640 317
-1015 313 -91 0 -178 -3 -195 -5z m385 -488 c286 -43 518 -160 721 -364 253
-252 373 -544 373 -901 0 -171 -14 -260 -65 -415 -121 -362 -433 -673 -797
-795 -152 -50 -242 -64 -412 -64 -357 0 -649 120 -901 373 -150 149 -247 303
-309 489 -128 387 -74 793 153 1132 65 97 241 273 340 339 265 178 592 253
897 206z"/>
<path d="M2265 4135 l-25 -24 0 -296 0 -295 -295 0 -296 0 -24 -25 -25 -24 0
-271 0 -271 25 -24 24 -25 296 0 295 0 0 -295 0 -296 25 -24 24 -25 271 0 271
0 24 25 25 24 0 296 0 295 295 0 296 0 24 25 25 24 0 271 0 271 -25 24 -24 25
-296 0 -295 0 0 295 0 296 -25 24 -24 25 -271 0 -271 0 -24 -25z"/>
</g>
</svg>
